# xmcd
#
# Track frame offsets:
#	150
#	10005
#	58355
#	106317
#	167195
#	222202
#	233940
#	251622
#	260207
#	262245
#
# Disc length: 3577 seconds
#
# Revision: 1
# Processed by: cddbd v1.5.1PL0 Copyright (c) Steve Scherf et al.
# Submitted via: CDex 1.50Beta5
#
DISCID=970df70a
DTITLE=関智一 - MAZE☆爆熱時空 フォルム2 〜幻影城の純情少年〜
DYEAR=1996
DGENRE=
TTITLE0=関智一/オープニング*ドラマ
TTITLE1=関智一/始まりは騒がしい夜*ドラマ
TTITLE2=関智一/見せます!!出します!!イカせます!!感動の自己紹介*ドラマ
TTITLE3=関智一/うれしたのしの幻影城*ドラマ
TTITLE4=関智一/終幕…夢の約束*ドラマ
TTITLE5=関智一/エンディング*ドラマ
TTITLE6=丹下桜/愛してウキュウキュ
TTITLE7=関智一/スタジオコント*ドラマ
TTITLE8=関智一/次回予告*ドラマ
TTITLE9=関智一/用途自由のミルちゃんセリフ集*ドラマ
EXTD=
EXTT0=
EXTT1=
EXTT2=
EXTT3=
EXTT4=
EXTT5=
EXTT6=
EXTT7=
EXTT8=
EXTT9=
PLAYORDER=
